<svg width="14" height="16" fill="none" role="presentation"><mask id="user-icon-2" fill="#fff"><path fill-rule="evenodd" clip-rule="evenodd" d="M7.008 10.597c.843 0 1.54-.09 2.115-.25.501-.14 1.054.074 1.47.385.622.466 2.907 1.322 2.907 2.846v.964c0 .502-.433.92-.993.958h-11c-.546-.038-.973-.437-.991-.927L.5 13.578c0-1.524 2.3-2.38 2.922-2.846.416-.31.967-.525 1.467-.386.576.162 1.274.251 2.119.251zM7 0c2.705 0 3.5 1.996 3.5 4.5S9.512 9 7 9 3.5 7 3.5 4.5 4.295 0 7 0z"></path></mask><path d="M12.507 15.5V17h.051l.052-.003-.103-1.497zm-11 0l-.104 1.496.052.004h.052v-1.5zm-.991-.927l-1.5.024v.031l1.5-.055zM.5 13.578H-1v.024l1.5-.024zm4.389-3.232l-.405 1.445.405-1.445zm4.234 0l.404 1.445-.404-1.444zm-2.115 1.751c.945 0 1.783-.1 2.52-.306l-.809-2.889c-.414.116-.97.195-1.711.195v3zm2.686-.164c.258.193.645.401.88.534.298.167.581.332.835.513.259.184.426.343.52.47.043.058.06.096.067.113l.004.013v.002h3c0-1.553-1.149-2.541-1.85-3.04-.394-.283-.799-.514-1.105-.686-.164-.093-.285-.16-.394-.223a3.935 3.935 0 01-.12-.072l-.039-.025-1.798 2.401zM12 13.578v.964h3v-.964h-3zm0 .964c0-.196.087-.345.172-.427a.377.377 0 01.232-.111l.206 2.993c1.2-.083 2.39-1.026 2.39-2.455h-3zm.507-.542h-5.5v3h5.5v-3zm-5.5 0h-5.5v3h5.5v-3zm-5.395.004a.374.374 0 01.226.106.59.59 0 01.177.408l-2.998.11c.05 1.387 1.213 2.287 2.386 2.368l.209-2.992zm.404.545L2 13.554l-3 .048.016.995 3-.048zM2 13.578s0-.004.004-.012a.489.489 0 01.067-.113c.095-.126.263-.286.524-.47.256-.182.542-.348.84-.515.238-.132.627-.34.886-.535L2.524 9.532l-.038.024c-.03.019-.068.042-.12.072-.11.063-.23.13-.395.222-.308.172-.714.404-1.11.685C.158 11.032-1 12.02-1 13.578h3zm2.484-1.787c.737.206 1.576.306 2.524.306v-3c-.743 0-1.3-.08-1.715-.195l-.809 2.889zm-.163.142a.986.986 0 01.131-.083.577.577 0 01.1-.042c.051-.015.018.007-.068-.017l.809-2.89c-1.15-.32-2.187.195-2.77.63l1.798 2.402zm5.206-.142c-.083.024-.115.002-.063.017.023.007.057.02.1.043a.97.97 0 01.13.082l1.798-2.401c-.586-.439-1.625-.95-2.773-.63l.808 2.89zM7 1.5c.923 0 1.292.305 1.513.638C8.809 2.586 9 3.356 9 4.5h3c0-1.36-.207-2.84-.985-4.016C10.162-.806 8.782-1.5 7-1.5v3zm2 3c0 1.091-.221 1.872-.542 2.336-.264.382-.664.664-1.458.664v3c1.718 0 3.068-.716 3.926-1.958C11.726 7.382 12 5.912 12 4.5H9zm-2 3c-.793 0-1.193-.282-1.458-.665C5.221 6.37 5 5.59 5 4.5H2c0 1.412.273 2.88 1.074 4.04C3.932 9.782 5.28 10.5 7 10.5v-3zm-2-3c0-1.142.19-1.913.487-2.36.221-.335.59-.64 1.513-.64v-3c-1.783 0-3.163.695-4.016 1.985C2.207 1.662 2 3.141 2 4.5h3z"></path></svg>